<?xml version="1.0" standalone="yes"?><svg xmlns="http://www.w3.org/2000/svg" viewBox="0 0 448 512" style="zoom: 1;"><path d="M416,32 H31.9 C14.3,32 0,46.5 0,64.3 v383.4 C0,465.5 14.3,480 31.9,480 H416 c17.6,0 32,-14.5 32,-32.3 V64.3 c0,-17.8 -14.4,-32.3 -32,-32.3 M135.4,416 H69 V202.2 h66.5 V416 m-33.2,-243 c-21.3,0 -38.5,-17.3 -38.5,-38.5 S80.9,96 102.2,96 c21.2,0 38.5,17.3 38.5,38.5 c0,21.3 -17.2,38.5 -38.5,38.5 m282.1,243 h-66.4 V312 c0,-24.8 -.5,-56.7 -34.5,-56.7 c-34.6,0 -39.9,27 -39.9,54.9 V416 h-66.4 V202.2 h63.7 v29.2 h.9 c8.9,-16.8 30.6,-34.5 62.9,-34.5 c67.2,0 79.7,44.3 79.7,101.9 V416  z " fill="#4E9FBE"></path></svg>